<svg width="33" height="33" viewBox="0 0 33 33" fill="none" xmlns="http://www.w3.org/2000/svg">
<path d="M12.375 28.875H20.625" stroke="#F5F5F5" stroke-width="1.5" stroke-linecap="round" stroke-linejoin="round"/>
<path d="M7.24456 13.4064C7.24284 12.1838 7.48302 10.973 7.95126 9.84363C8.4195 8.71428 9.10655 7.68872 9.97283 6.82603C10.8391 5.96334 11.8675 5.28056 12.9988 4.81702C14.1301 4.35348 15.3419 4.11834 16.5645 4.12514C21.6692 4.16382 25.7555 8.40483 25.7555 13.5224V14.4376C25.7555 19.0525 26.7223 21.7337 27.5731 23.2033C27.6634 23.3598 27.7111 23.5373 27.7112 23.718C27.7114 23.8987 27.6641 24.0763 27.574 24.233C27.4839 24.3896 27.3542 24.5199 27.198 24.6106C27.0417 24.7014 26.8643 24.7495 26.6836 24.7501H6.31644C6.13572 24.7495 5.95835 24.7014 5.80208 24.6106C5.64582 24.5199 5.51615 24.3896 5.42607 24.233C5.33599 24.0763 5.28866 23.8987 5.28882 23.718C5.28898 23.5373 5.33662 23.3598 5.42698 23.2033C6.27776 21.7337 7.24456 19.0525 7.24456 14.4376V13.4064Z" stroke="#F5F5F5" stroke-width="1.5" stroke-linecap="round" stroke-linejoin="round"/>
</svg>
