<svg width="32" height="28" viewBox="0 0 32 28" fill="none" xmlns="http://www.w3.org/2000/svg">
<path d="M16.097 20.8578L22.2001 24.3578C22.9873 24.8062 23.956 24.1391 23.7259 23.3187L21.958 17.0406C21.9101 16.8666 21.9177 16.6839 21.9799 16.5136C22.042 16.3433 22.1561 16.1924 22.3091 16.0781L27.7826 11.9547C28.497 11.4187 28.1337 10.3359 27.2013 10.2812L20.0568 9.86562C19.8618 9.85538 19.6744 9.79406 19.5174 9.68917C19.3605 9.58429 19.2407 9.44036 19.1728 9.275L16.5087 3.21562C16.4382 3.04052 16.3097 2.88925 16.1408 2.78236C15.9718 2.67547 15.7705 2.61813 15.5642 2.61813C15.3579 2.61813 15.1566 2.67547 14.9876 2.78236C14.8187 2.88925 14.6902 3.04052 14.6197 3.21562L11.9556 9.275C11.8877 9.44036 11.768 9.58429 11.611 9.68917C11.454 9.79406 11.2666 9.85538 11.0716 9.86562L3.92709 10.2812C2.99467 10.3359 2.63139 11.4187 3.34584 11.9547L8.81928 16.0781C8.97227 16.1924 9.0864 16.3433 9.14853 16.5136C9.21066 16.6839 9.21826 16.8666 9.17045 17.0406L7.53569 22.8594C7.25717 23.8437 8.41967 24.6422 9.35209 24.1062L15.0314 20.8578C15.1907 20.7663 15.3755 20.7178 15.5642 20.7178C15.7529 20.7178 15.9378 20.7663 16.097 20.8578V20.8578Z" fill="#EBC80C"/>
</svg>
