<svg width="29" height="28" viewBox="0 0 29 28" fill="none" xmlns="http://www.w3.org/2000/svg">
<path d="M14.5455 20.8578L20.058 24.3578C20.7689 24.8062 21.6439 24.1391 21.4361 23.3187L19.8392 17.0406C19.796 16.8666 19.8029 16.6839 19.859 16.5136C19.9151 16.3433 20.0182 16.1924 20.1564 16.0781L25.1002 11.9547C25.7455 11.4187 25.4173 10.3359 24.5752 10.2812L18.122 9.86562C17.946 9.85538 17.7767 9.79406 17.6349 9.68917C17.4931 9.58429 17.3849 9.44036 17.3236 9.275L14.9173 3.21562C14.8537 3.04052 14.7376 2.88925 14.585 2.78236C14.4324 2.67547 14.2506 2.61813 14.0642 2.61813C13.8779 2.61813 13.6961 2.67547 13.5434 2.78236C13.3908 2.88925 13.2748 3.04052 13.2111 3.21562L10.8048 9.275C10.7435 9.44036 10.6353 9.58429 10.4936 9.68917C10.3518 9.79406 10.1825 9.85538 10.0064 9.86562L3.55328 10.2812C2.71109 10.3359 2.38297 11.4187 3.02828 11.9547L7.97203 16.0781C8.11021 16.1924 8.2133 16.3433 8.26942 16.5136C8.32553 16.6839 8.3324 16.8666 8.28922 17.0406L6.81266 22.8594C6.5611 23.8437 7.6111 24.6422 8.45328 24.1062L13.583 20.8578C13.7268 20.7663 13.8938 20.7178 14.0642 20.7178C14.2347 20.7178 14.4016 20.7663 14.5455 20.8578V20.8578Z" fill="#EBC80C"/>
</svg>
