<svg width="19" height="19" viewBox="0 0 19 19" fill="none" xmlns="http://www.w3.org/2000/svg">
<path d="M9.82665 14.1533L13.5673 16.5283C14.0497 16.8326 14.6434 16.3799 14.5024 15.8232L13.4188 11.5631C13.3895 11.445 13.3942 11.321 13.4323 11.2055C13.4704 11.0899 13.5403 10.9875 13.6341 10.9099L16.9888 8.11188C17.4267 7.74821 17.204 7.01345 16.6325 6.97634L12.2536 6.6943C12.1341 6.68735 12.0193 6.64575 11.923 6.57457C11.8268 6.5034 11.7534 6.40574 11.7118 6.29352L10.079 2.18181C10.0358 2.06298 9.95704 1.96034 9.85347 1.88781C9.7499 1.81527 9.62653 1.77637 9.50009 1.77637C9.37365 1.77637 9.25027 1.81527 9.14671 1.88781C9.04314 1.96034 8.9644 2.06298 8.92118 2.18181L7.28837 6.29352C7.24676 6.40574 7.17335 6.5034 7.07714 6.57457C6.98092 6.64575 6.86605 6.68735 6.74657 6.6943L2.36767 6.97634C1.79618 7.01345 1.57353 7.74821 2.01142 8.11188L5.3661 10.9099C5.45987 10.9875 5.52982 11.0899 5.5679 11.2055C5.60598 11.321 5.61064 11.445 5.58134 11.5631L4.57939 15.5115C4.40868 16.1795 5.12118 16.7213 5.69267 16.3576L9.17353 14.1533C9.27114 14.0912 9.38442 14.0583 9.50009 14.0583C9.61576 14.0583 9.72904 14.0912 9.82665 14.1533Z" fill="#EBC80C"/>
</svg>
