<svg width="31" height="28" viewBox="0 0 31 28" fill="none" xmlns="http://www.w3.org/2000/svg">
<path d="M16.0328 20.8578L22.1359 24.3578C22.923 24.8063 23.8918 24.1391 23.6617 23.3188L21.8937 17.0407C21.8459 16.8666 21.8535 16.684 21.9156 16.5137C21.9778 16.3434 22.0919 16.1924 22.2449 16.0782L27.7183 11.9547C28.4328 11.4188 28.0695 10.336 27.1371 10.2813L19.9925 9.86565C19.7976 9.85541 19.6102 9.79409 19.4532 9.68921C19.2962 9.58432 19.1765 9.44039 19.1086 9.27503L16.4445 3.21565C16.374 3.04055 16.2455 2.88928 16.0765 2.78239C15.9076 2.6755 15.7063 2.61816 15.5 2.61816C15.2937 2.61816 15.0924 2.6755 14.9234 2.78239C14.7544 2.88928 14.626 3.04055 14.5554 3.21565L11.8914 9.27503C11.8235 9.44039 11.7037 9.58432 11.5467 9.68921C11.3897 9.79409 11.2023 9.85541 11.0074 9.86565L3.86285 10.2813C2.93043 10.336 2.56715 11.4188 3.2816 11.9547L8.75504 16.0782C8.90803 16.1924 9.02216 16.3434 9.08429 16.5137C9.14642 16.684 9.15402 16.8666 9.10621 17.0407L7.47145 22.8594C7.19293 23.8438 8.35543 24.6422 9.28786 24.1063L14.9672 20.8578C15.1264 20.7664 15.3112 20.7178 15.5 20.7178C15.6887 20.7178 15.8735 20.7664 16.0328 20.8578Z" fill="#EBC80C"/>
</svg>
