<svg width="25" height="24" viewBox="0 0 25 24" fill="none" xmlns="http://www.w3.org/2000/svg">
<path d="M8.75391 20.25C8.75391 20.6642 8.41812 21 8.00391 21C7.58969 21 7.25391 20.6642 7.25391 20.25C7.25391 19.8358 7.58969 19.5 8.00391 19.5C8.41812 19.5 8.75391 19.8358 8.75391 20.25Z" fill="white" stroke="white" stroke-width="1.5"/>
<path d="M18.5039 20.25C18.5039 20.6642 18.1681 21 17.7539 21C17.3397 21 17.0039 20.6642 17.0039 20.25C17.0039 19.8358 17.3397 19.5 17.7539 19.5C18.1681 19.5 18.5039 19.8358 18.5039 20.25Z" fill="white" stroke="white" stroke-width="1.5"/>
<path d="M4.46953 6.75H21.2883L18.8133 15.4125C18.725 15.7269 18.5359 16.0036 18.275 16.2C18.0142 16.3965 17.6961 16.5019 17.3695 16.5H8.38828C8.06174 16.5019 7.7436 16.3965 7.48277 16.2C7.22194 16.0036 7.03284 15.7269 6.94453 15.4125L3.55078 3.54375C3.50593 3.38696 3.4112 3.24905 3.28094 3.15093C3.15068 3.05282 2.99199 2.99983 2.82891 3H1.25391" stroke="white" stroke-width="1.5" stroke-linecap="round" stroke-linejoin="round"/>
</svg>
