<svg width="32" height="32" viewBox="0 0 32 32" fill="none" xmlns="http://www.w3.org/2000/svg">
<path opacity="0.2" d="M9.23744 13.925L5.31244 18.625C5.21356 18.7403 5.14379 18.8777 5.10899 19.0256C5.07419 19.1735 5.07538 19.3276 5.11244 19.475L6.64994 26.4375C6.68704 26.603 6.76563 26.7563 6.87831 26.8831C6.99099 27.0099 7.13405 27.1059 7.29406 27.1621C7.45407 27.2184 7.62575 27.233 7.79297 27.2047C7.96018 27.1763 8.11744 27.1059 8.24994 27L11.9999 24C9.79994 20.175 9.08744 16.8125 9.23744 13.925Z" fill="#2DA5F3"/>
<path opacity="0.2" d="M22.6875 13.8375L26.6125 18.55C26.7114 18.6654 26.7812 18.8028 26.816 18.9507C26.8508 19.0986 26.8496 19.2527 26.8125 19.4L25.275 26.35C25.2396 26.5166 25.1622 26.6713 25.0503 26.7996C24.9383 26.9279 24.7954 27.0254 24.6351 27.083C24.4749 27.1406 24.3026 27.1563 24.1346 27.1287C23.9666 27.101 23.8084 27.0309 23.675 26.925L19.925 23.925C22.125 20.0875 22.8375 16.725 22.6875 13.8375Z" fill="#2DA5F3"/>
<path d="M18 28H14" stroke="#2DA5F3" stroke-width="2" stroke-linecap="round" stroke-linejoin="round"/>
<path d="M15.3749 2.47502C12.9999 4.37502 5.06243 11.975 11.9999 24H19.9999C26.7999 11.975 18.9749 4.38752 16.6249 2.47502C16.4496 2.32857 16.2284 2.24835 15.9999 2.24835C15.7715 2.24835 15.5503 2.32857 15.3749 2.47502Z" stroke="#2DA5F3" stroke-width="2" stroke-linecap="round" stroke-linejoin="round"/>
<path d="M9.23744 13.925L5.31244 18.625C5.21356 18.7403 5.14379 18.8777 5.10899 19.0256C5.07419 19.1735 5.07538 19.3276 5.11244 19.475L6.64994 26.4375C6.68704 26.603 6.76563 26.7563 6.87831 26.8831C6.99099 27.0099 7.13405 27.1059 7.29406 27.1621C7.45407 27.2184 7.62575 27.233 7.79297 27.2047C7.96018 27.1763 8.11744 27.1059 8.24994 27L11.9999 24" stroke="#2DA5F3" stroke-width="2" stroke-linecap="round" stroke-linejoin="round"/>
<path d="M22.6875 13.825L26.6875 18.625C26.7864 18.7404 26.8561 18.8778 26.8909 19.0257C26.9258 19.1736 26.9246 19.3277 26.8875 19.475L25.35 26.4375C25.3129 26.603 25.2343 26.7564 25.1216 26.8831C25.009 27.0099 24.8659 27.1059 24.7059 27.1622C24.5459 27.2184 24.3742 27.233 24.207 27.2047C24.0398 27.1763 23.8825 27.1059 23.75 27L20 24" stroke="#2DA5F3" stroke-width="2" stroke-linecap="round" stroke-linejoin="round"/>
<path d="M16 13.5C16.8284 13.5 17.5 12.8284 17.5 12C17.5 11.1716 16.8284 10.5 16 10.5C15.1716 10.5 14.5 11.1716 14.5 12C14.5 12.8284 15.1716 13.5 16 13.5Z" fill="#2DA5F3"/>
</svg>
