<svg width="12" height="12" viewBox="0 0 12 12" fill="none" xmlns="http://www.w3.org/2000/svg">
<path d="M6.20637 8.93907L8.56887 10.4391C8.87356 10.6313 9.24856 10.3453 9.1595 9.99376L8.47512 7.30314C8.45662 7.22856 8.45956 7.15027 8.48361 7.07728C8.50766 7.0043 8.55184 6.9396 8.61106 6.89064L10.7298 5.12345C11.0064 4.89376 10.8657 4.4297 10.5048 4.40626L7.73918 4.22814C7.66372 4.22375 7.59117 4.19747 7.53041 4.15252C7.46964 4.10756 7.42328 4.04588 7.397 3.97501L6.36575 1.37814C6.33845 1.30309 6.28872 1.23826 6.22331 1.19245C6.1579 1.14664 6.07998 1.12207 6.00012 1.12207C5.92026 1.12207 5.84234 1.14664 5.77693 1.19245C5.71152 1.23826 5.66179 1.30309 5.6345 1.37814L4.60325 3.97501C4.57696 4.04588 4.5306 4.10756 4.46983 4.15252C4.40907 4.19747 4.33652 4.22375 4.26106 4.22814L1.49543 4.40626C1.1345 4.4297 0.99387 4.89376 1.27043 5.12345L3.38918 6.89064C3.4484 6.9396 3.49258 7.0043 3.51663 7.07728C3.54068 7.15027 3.54363 7.22856 3.52512 7.30314L2.89231 9.79689C2.7845 10.2188 3.2345 10.5609 3.59543 10.3313L5.79387 8.93907C5.85552 8.89987 5.92706 8.87905 6.00012 8.87905C6.07318 8.87905 6.14472 8.89987 6.20637 8.93907Z" fill="#EBC80C"/>
</svg>
