<svg width="29" height="28" viewBox="0 0 29 28" fill="none" xmlns="http://www.w3.org/2000/svg">
<path d="M14.5455 20.8578L20.058 24.3578C20.7689 24.8063 21.6439 24.1391 21.4361 23.3188L19.8392 17.0407C19.796 16.8666 19.8029 16.684 19.859 16.5137C19.9151 16.3434 20.0182 16.1924 20.1564 16.0782L25.1001 11.9547C25.7455 11.4188 25.4173 10.336 24.5751 10.2813L18.122 9.86565C17.9459 9.85541 17.7767 9.79409 17.6349 9.68921C17.4931 9.58432 17.3849 9.44039 17.3236 9.27503L14.9173 3.21565C14.8536 3.04055 14.7376 2.88928 14.585 2.78239C14.4324 2.6755 14.2505 2.61816 14.0642 2.61816C13.8779 2.61816 13.6961 2.6755 13.5434 2.78239C13.3908 2.88928 13.2748 3.04055 13.2111 3.21565L10.8048 9.27503C10.7435 9.44039 10.6353 9.58432 10.4935 9.68921C10.3517 9.79409 10.1825 9.85541 10.0064 9.86565L3.55327 10.2813C2.71108 10.336 2.38295 11.4188 3.02827 11.9547L7.97202 16.0782C8.1102 16.1924 8.21328 16.3434 8.2694 16.5137C8.32552 16.684 8.33238 16.8666 8.2892 17.0407L6.81264 22.8594C6.56108 23.8438 7.61108 24.6422 8.45327 24.1063L13.583 20.8578C13.7268 20.7664 13.8937 20.7178 14.0642 20.7178C14.2347 20.7178 14.4016 20.7664 14.5455 20.8578Z" fill="#EBC80C"/>
</svg>
