<svg width="13" height="12" viewBox="0 0 13 12" fill="none" xmlns="http://www.w3.org/2000/svg">
<path d="M6.72347 8.93907L9.28284 10.4391C9.61292 10.6313 10.0192 10.3453 9.92268 9.99376L9.18128 7.30314C9.16123 7.22856 9.16442 7.15027 9.19047 7.07728C9.21653 7.0043 9.26439 6.9396 9.32854 6.89064L11.6239 5.12345C11.9235 4.89376 11.7711 4.4297 11.3801 4.40626L8.38401 4.22814C8.30226 4.22375 8.22367 4.19747 8.15784 4.15252C8.092 4.10756 8.04178 4.04588 8.01331 3.97501L6.89612 1.37814C6.86655 1.30309 6.81268 1.23826 6.74182 1.19245C6.67095 1.14664 6.58654 1.12207 6.50003 1.12207C6.41352 1.12207 6.3291 1.14664 6.25824 1.19245C6.18738 1.23826 6.13351 1.30309 6.10393 1.37814L4.98675 3.97501C4.95827 4.04588 4.90805 4.10756 4.84222 4.15252C4.77639 4.19747 4.69779 4.22375 4.61604 4.22814L1.61995 4.40626C1.22893 4.4297 1.07659 4.89376 1.3762 5.12345L3.67151 6.89064C3.73567 6.9396 3.78353 7.0043 3.80958 7.07728C3.83564 7.15027 3.83883 7.22856 3.81878 7.30314L3.13323 9.79689C3.01643 10.2188 3.50393 10.5609 3.89495 10.3313L6.27659 8.93907C6.34338 8.89987 6.42088 8.87905 6.50003 8.87905C6.57917 8.87905 6.65668 8.89987 6.72347 8.93907Z" fill="#EBC80C"/>
</svg>
