<svg width="33" height="33" viewBox="0 0 33 33" fill="none" xmlns="http://www.w3.org/2000/svg">
<path d="M12.375 28.875H20.625" stroke="#F5F5F5" stroke-width="1.5" stroke-linecap="round" stroke-linejoin="round"/>
<path d="M7.24456 13.4062C7.24284 12.1837 7.48302 10.9728 7.95126 9.84349C8.4195 8.71413 9.10655 7.68858 9.97283 6.82588C10.8391 5.96319 11.8675 5.28041 12.9988 4.81687C14.1301 4.35334 15.3419 4.1182 16.5645 4.125C21.6692 4.16367 25.7555 8.40469 25.7555 13.5223V14.4375C25.7555 19.0523 26.7223 21.7336 27.5731 23.2031C27.6634 23.3596 27.7111 23.5371 27.7112 23.7178C27.7114 23.8986 27.6641 24.0761 27.574 24.2328C27.4839 24.3895 27.3542 24.5197 27.198 24.6105C27.0417 24.7013 26.8643 24.7494 26.6836 24.75H6.31644C6.13572 24.7494 5.95835 24.7013 5.80208 24.6105C5.64582 24.5197 5.51615 24.3895 5.42607 24.2328C5.33599 24.0761 5.28866 23.8986 5.28882 23.7178C5.28898 23.5371 5.33662 23.3596 5.42698 23.2031C6.27776 21.7336 7.24456 19.0523 7.24456 14.4375V13.4062Z" stroke="#F5F5F5" stroke-width="1.5" stroke-linecap="round" stroke-linejoin="round"/>
</svg>
