<svg width="21" height="19" viewBox="0 0 21 19" fill="none" xmlns="http://www.w3.org/2000/svg">
<path d="M10.861 14.1535L14.9953 16.5285C15.5285 16.8328 16.1848 16.3801 16.0289 15.8234L14.8313 11.5633C14.7989 11.4452 14.804 11.3212 14.8461 11.2057C14.8882 11.0901 14.9655 10.9877 15.0692 10.9101L18.777 8.1121C19.261 7.74842 19.0149 7.01366 18.3832 6.97655L13.5434 6.69452C13.4113 6.68757 13.2844 6.64596 13.178 6.57479C13.0717 6.50361 12.9906 6.40595 12.9446 6.29374L11.1399 2.18202C11.0921 2.0632 11.0051 1.96055 10.8906 1.88802C10.7761 1.81549 10.6398 1.77658 10.5 1.77658C10.3603 1.77658 10.2239 1.81549 10.1094 1.88802C9.99498 1.96055 9.90795 2.0632 9.86018 2.18202L8.0555 6.29374C8.0095 6.40595 7.92837 6.50361 7.82203 6.57479C7.71568 6.64596 7.58872 6.68757 7.45667 6.69452L2.61682 6.97655C1.98518 7.01366 1.73909 7.74842 2.22307 8.1121L5.93089 10.9101C6.03452 10.9877 6.11184 11.0901 6.15392 11.2057C6.19601 11.3212 6.20116 11.4452 6.16878 11.5633L5.06136 15.5117C4.87268 16.1797 5.66018 16.7215 6.29182 16.3578L10.1391 14.1535C10.247 14.0914 10.3722 14.0585 10.5 14.0585C10.6279 14.0585 10.7531 14.0914 10.861 14.1535Z" fill="#EBC80C"/>
</svg>
