<svg width="19" height="19" viewBox="0 0 19 19" fill="none" xmlns="http://www.w3.org/2000/svg">
<path d="M9.82653 14.1535L13.5672 16.5285C14.0496 16.8328 14.6433 16.3801 14.5023 15.8234L13.4187 11.5633C13.3894 11.4452 13.3941 11.3212 13.4322 11.2057C13.4702 11.0901 13.5402 10.9877 13.634 10.9101L16.9886 8.1121C17.4265 7.74842 17.2039 7.01366 16.6324 6.97655L12.2535 6.69452C12.134 6.68757 12.0191 6.64596 11.9229 6.57479C11.8267 6.50361 11.7533 6.40595 11.7117 6.29374L10.0789 2.18202C10.0357 2.0632 9.95691 1.96055 9.85335 1.88802C9.74978 1.81549 9.62641 1.77658 9.49997 1.77658C9.37353 1.77658 9.25015 1.81549 9.14659 1.88802C9.04302 1.96055 8.96428 2.0632 8.92106 2.18202L7.28825 6.29374C7.24663 6.40595 7.17323 6.50361 7.07701 6.57479C6.9808 6.64596 6.86593 6.68757 6.74645 6.69452L2.36754 6.97655C1.79606 7.01366 1.5734 7.74842 2.01129 8.1121L5.36598 10.9101C5.45975 10.9877 5.5297 11.0901 5.56778 11.2057C5.60586 11.3212 5.61052 11.4452 5.58122 11.5633L4.57926 15.5117C4.40856 16.1797 5.12106 16.7215 5.69254 16.3578L9.1734 14.1535C9.27102 14.0914 9.38429 14.0585 9.49997 14.0585C9.61564 14.0585 9.72892 14.0914 9.82653 14.1535Z" fill="#EBC80C"/>
</svg>
