<svg width="28" height="28" viewBox="0 0 28 28" fill="none" xmlns="http://www.w3.org/2000/svg">
<path d="M14.4814 20.8578L19.9939 24.3578C20.7048 24.8063 21.5798 24.1391 21.372 23.3188L19.7751 17.0407C19.7319 16.8666 19.7388 16.684 19.7949 16.5137C19.851 16.3434 19.9541 16.1924 20.0923 16.0782L25.0361 11.9547C25.6814 11.4188 25.3532 10.336 24.5111 10.2813L18.0579 9.86565C17.8819 9.85541 17.7126 9.79409 17.5708 9.68921C17.429 9.58432 17.3208 9.44039 17.2595 9.27503L14.8532 3.21565C14.7895 3.04055 14.6735 2.88928 14.5209 2.78239C14.3683 2.6755 14.1865 2.61816 14.0001 2.61816C13.8138 2.61816 13.632 2.6755 13.4793 2.78239C13.3267 2.88928 13.2107 3.04055 13.147 3.21565L10.7407 9.27503C10.6794 9.44039 10.5712 9.58432 10.4295 9.68921C10.2877 9.79409 10.1184 9.85541 9.94231 9.86565L3.48918 10.2813C2.64699 10.336 2.31887 11.4188 2.96418 11.9547L7.90793 16.0782C8.04611 16.1924 8.1492 16.3434 8.20531 16.5137C8.26143 16.684 8.2683 16.8666 8.22512 17.0407L6.74856 22.8594C6.49699 23.8438 7.54699 24.6422 8.38918 24.1063L13.5189 20.8578C13.6627 20.7664 13.8297 20.7178 14.0001 20.7178C14.1706 20.7178 14.3375 20.7664 14.4814 20.8578Z" fill="#EBC80C"/>
</svg>
