<svg width="33" height="33" viewBox="0 0 33 33" fill="none" xmlns="http://www.w3.org/2000/svg">
<path d="M12.375 28.875H20.625" stroke="#F5F5F5" stroke-width="1.5" stroke-linecap="round" stroke-linejoin="round"/>
<path d="M7.24456 13.4062C7.24284 12.1836 7.48302 10.9727 7.95126 9.84339C8.4195 8.71403 9.10655 7.68848 9.97283 6.82578C10.8391 5.96309 11.8675 5.28031 12.9988 4.81678C14.1301 4.35324 15.3419 4.1181 16.5645 4.1249C21.6692 4.16357 25.7555 8.40459 25.7555 13.5222V14.4374C25.7555 19.0522 26.7223 21.7335 27.5731 23.203C27.6634 23.3595 27.7111 23.537 27.7112 23.7177C27.7114 23.8985 27.6641 24.076 27.574 24.2327C27.4839 24.3894 27.3542 24.5196 27.198 24.6104C27.0417 24.7012 26.8643 24.7493 26.6836 24.7499H6.31644C6.13572 24.7493 5.95835 24.7012 5.80208 24.6104C5.64582 24.5196 5.51615 24.3894 5.42607 24.2327C5.33599 24.076 5.28866 23.8985 5.28882 23.7177C5.28898 23.537 5.33662 23.3595 5.42698 23.203C6.27776 21.7335 7.24456 19.0522 7.24456 14.4374V13.4062Z" stroke="#F5F5F5" stroke-width="1.5" stroke-linecap="round" stroke-linejoin="round"/>
</svg>
