<svg width="21" height="19" viewBox="0 0 21 19" fill="none" xmlns="http://www.w3.org/2000/svg">
<path d="M10.8611 14.1533L14.9955 16.5283C15.5287 16.8326 16.1849 16.3799 16.0291 15.8232L14.8314 11.5631C14.799 11.445 14.8042 11.321 14.8463 11.2055C14.8883 11.0899 14.9657 10.9875 15.0693 10.9099L18.7771 8.11188C19.2611 7.74821 19.015 7.01345 18.3834 6.97634L13.5435 6.6943C13.4115 6.68735 13.2845 6.64575 13.1781 6.57457C13.0718 6.5034 12.9907 6.40574 12.9447 6.29352L11.14 2.18181C11.0922 2.06298 11.0052 1.96034 10.8907 1.88781C10.7763 1.81527 10.6399 1.77637 10.5001 1.77637C10.3604 1.77637 10.224 1.81527 10.1096 1.88781C9.9951 1.96034 9.90808 2.06298 9.8603 2.18181L8.05562 6.29352C8.00962 6.40574 7.9285 6.5034 7.82215 6.57457C7.7158 6.64575 7.58885 6.68735 7.45679 6.6943L2.61695 6.97634C1.98531 7.01345 1.73921 7.74821 2.2232 8.11188L5.93101 10.9099C6.03464 10.9875 6.11196 11.0899 6.15405 11.2055C6.19613 11.321 6.20128 11.445 6.1689 11.5631L5.06148 15.5115C4.87281 16.1795 5.66031 16.7213 6.29195 16.3576L10.1392 14.1533C10.2471 14.0912 10.3723 14.0583 10.5001 14.0583C10.628 14.0583 10.7532 14.0912 10.8611 14.1533Z" fill="#EBC80C"/>
</svg>
