<svg width="32" height="28" viewBox="0 0 32 28" fill="none" xmlns="http://www.w3.org/2000/svg">
<path d="M16.097 20.8578L22.2001 24.3578C22.9872 24.8063 23.956 24.1391 23.7259 23.3188L21.9579 17.0407C21.9101 16.8666 21.9177 16.684 21.9798 16.5137C22.042 16.3434 22.1561 16.1924 22.3091 16.0782L27.7825 11.9547C28.497 11.4188 28.1337 10.336 27.2013 10.2813L20.0568 9.86565C19.8618 9.85541 19.6744 9.79409 19.5174 9.68921C19.3604 9.58432 19.2407 9.44039 19.1728 9.27503L16.5087 3.21565C16.4382 3.04055 16.3097 2.88928 16.1407 2.78239C15.9718 2.6755 15.7705 2.61816 15.5642 2.61816C15.3579 2.61816 15.1566 2.6755 14.9876 2.78239C14.8186 2.88928 14.6902 3.04055 14.6196 3.21565L11.9556 9.27503C11.8877 9.44039 11.7679 9.58432 11.6109 9.68921C11.4539 9.79409 11.2665 9.85541 11.0716 9.86565L3.92706 10.2813C2.99464 10.336 2.63136 11.4188 3.34581 11.9547L8.81925 16.0782C8.97224 16.1924 9.08637 16.3434 9.1485 16.5137C9.21063 16.684 9.21823 16.8666 9.17042 17.0407L7.53566 22.8594C7.25714 23.8438 8.41964 24.6422 9.35206 24.1063L15.0314 20.8578C15.1906 20.7664 15.3754 20.7178 15.5642 20.7178C15.7529 20.7178 15.9377 20.7664 16.097 20.8578Z" fill="#EBC80C"/>
</svg>
